<svg width="240" height="240" viewBox="0 0 240 240" fill="none" xmlns="http://www.w3.org/2000/svg">
<rect width="240" height="240" rx="10" fill="white"/>
<g clip-path="url(#clip0_52_3)">
<path d="M120 180C86.8652 180 60 153.139 60 120C60 86.8652 86.8652 60 120 60C153.139 60 180 86.8652 180 120C180 153.139 153.139 180 120 180Z" fill="#2D5151"/>
<path d="M152.142 113.011C149.992 110.86 147.587 110.458 145.492 110.864L145.652 109.984C145.652 109.12 145.652 107.821 144.789 106.953C143.925 106.089 143.057 105.653 141.758 105.653H89.3947C88.0951 105.653 87.2315 106.085 86.3636 106.953C85.5 107.816 85.5 108.684 85.5 109.984L88.9629 129.026C90.6944 139.41 99.7835 147.2 110.6 147.2H120.553C131.331 147.2 140.382 139.889 142.16 129.136C142.93 129.322 143.65 129.457 144.353 129.457C147.816 129.457 150.843 127.726 152.574 124.699C155.173 120.8 154.742 115.606 152.142 113.011ZM120.553 143.301H110.6C101.947 143.301 94.5891 137.243 93.2895 128.585L90.2583 110.411H140.89L137.859 128.585C136.563 137.243 129.206 143.301 120.553 143.301ZM148.684 122.096C147.938 123.59 146.22 125.067 142.994 124.623L144.721 115.123C145.674 114.552 147.058 113.976 148.684 115.602C149.979 116.905 149.979 119.932 148.684 122.096Z" fill="white" stroke="white" stroke-miterlimit="10"/>
<path d="M103.242 97.4318C103.242 100.027 104.542 101.758 104.542 102.19C104.974 102.622 105.405 103.054 106.273 103.054C106.705 103.054 106.705 103.054 107.573 103.054C108.873 102.19 108.873 100.891 108.437 100.023C108.437 100.023 107.573 98.723 107.573 97.4276C107.573 96.1322 108.437 94.8325 108.437 94.8325C108.437 94.8325 109.736 92.6692 109.736 90.0742C109.736 87.4791 108.437 85.7476 108.437 85.3158C107.573 84.0162 106.273 84.0162 105.405 84.4522C104.106 85.3158 104.106 86.6155 104.542 87.4833C104.542 87.4833 105.405 88.783 105.405 90.0784C105.405 91.3738 104.542 92.6735 104.542 92.6735C104.542 92.6735 103.242 94.8325 103.242 97.4318Z" fill="white" stroke="white" stroke-miterlimit="10"/>
<path d="M112.763 97.4318C112.763 100.027 114.063 102.19 114.063 102.19C114.495 102.622 114.926 103.054 115.794 103.054C116.226 103.054 116.658 103.054 117.094 103.054C118.394 102.19 118.394 100.891 117.958 100.023C117.958 100.023 117.094 98.723 117.094 97.4276C117.094 96.1322 117.958 94.8325 117.958 94.8325C117.958 94.8325 119.257 92.6692 119.257 90.0742C119.257 87.4791 117.958 85.7476 117.958 85.3158C117.094 84.0162 115.794 84.0162 114.926 84.4522C113.627 85.3158 113.627 86.6155 114.063 87.4833C114.063 87.4833 114.926 88.783 114.926 90.0784C114.926 91.3738 114.063 92.6735 114.063 92.6735C114.063 92.6735 112.763 94.8325 112.763 97.4318Z" fill="white" stroke="white" stroke-miterlimit="10"/>
<path d="M122.284 97.4318C122.284 100.027 123.584 102.19 123.584 102.19C124.016 102.622 124.447 103.054 125.315 103.054C125.747 103.054 126.179 103.054 126.615 103.054C127.915 102.19 127.915 100.891 127.479 100.023C127.479 100.023 126.615 98.723 126.615 97.4276C126.615 96.1322 127.479 94.8325 127.479 94.8325C127.479 94.8325 128.778 92.6692 128.778 90.0742C128.778 87.4791 127.479 85.7476 127.479 85.3158C126.615 84.0162 125.747 83.5844 124.447 84.4522C123.148 85.3158 123.148 86.6155 123.584 87.4833C123.584 87.4833 124.447 88.783 124.447 90.0784C124.447 91.3738 123.584 92.6735 123.584 92.6735C123.584 92.6735 122.284 94.8325 122.284 97.4318Z" fill="white" stroke="white" stroke-miterlimit="10"/>
<path d="M143.921 151.526H87.6633C86.3636 151.526 85.5 152.39 85.5 153.69C85.5 154.989 86.3636 155.853 87.6633 155.853H143.921C145.221 155.853 146.084 154.989 146.084 153.69C146.084 152.39 145.221 151.526 143.921 151.526Z" fill="white" stroke="white" stroke-miterlimit="10"/>
</g>
<defs>
<clipPath id="clip0_52_3">
<rect width="120" height="120" fill="white" transform="translate(60 60)"/>
</clipPath>
</defs>
</svg>
